<?xml version="1.0" encoding="UTF-8" standalone="no"?>
<svg xmlns="http://www.w3.org/2000/svg" viewBox="0 0 24 24" width="64" height="64">
  <defs>
    <linearGradient id="gradient1" x1="0%" y1="0%" x2="100%" y2="100%">
      <stop offset="0%" stop-color="#6366F1" />
      <stop offset="100%" stop-color="#8B5CF6" />
    </linearGradient>
    <linearGradient id="gradient2" x1="0%" y1="0%" x2="100%" y2="100%">
      <stop offset="0%" stop-color="#EC4899" />
      <stop offset="100%" stop-color="#F472B6" />
    </linearGradient>
    <filter id="shadow" x="-20%" y="-20%" width="140%" height="140%">
      <feDropShadow dx="0" dy="1" stdDeviation="1" flood-color="#000" flood-opacity="0.3"/>
    </filter>
  </defs>
  <rect x="2" y="2" width="20" height="20" rx="5" fill="url(#gradient1)" filter="url(#shadow)"/>
  <circle cx="12" cy="12" r="6" fill="white" opacity="0.2"/>
  <path d="M8,10 L16,10 C17.1,10 18,10.9 18,12 L18,18 C18,19.1 17.1,20 16,20 L8,20 C6.9,20 6,19.1 6,18 L6,12 C6,10.9 6.9,10 8,10 Z" fill="white"/>
  <rect x="7" y="12" width="10" height="1.5" rx="0.75" fill="#6366F1"/>
  <rect x="7" y="15" width="10" height="1.5" rx="0.75" fill="#6366F1"/>
  <circle cx="16" cy="7" r="3.5" fill="url(#gradient2)" filter="url(#shadow)"/>
  <text x="16" y="8.5" text-anchor="middle" font-family="Arial, sans-serif" font-weight="bold" font-size="5" fill="white">$</text>
</svg> 