<?xml version="1.0" encoding="UTF-8" standalone="no"?>
<svg xmlns="http://www.w3.org/2000/svg" width="64" height="64" viewBox="0 0 24 24">
  <defs>
    <linearGradient id="fileGradient1" x1="0%" y1="0%" x2="100%" y2="100%">
      <stop offset="0%" stop-color="#4285F4" />
      <stop offset="100%" stop-color="#5C9DFF" />
    </linearGradient>
    <linearGradient id="fileGradient2" x1="0%" y1="0%" x2="100%" y2="100%">
      <stop offset="0%" stop-color="#5C9DFF" />
      <stop offset="100%" stop-color="#80B4FF" />
    </linearGradient>
    <linearGradient id="fileGradient3" x1="0%" y1="0%" x2="100%" y2="100%">
      <stop offset="0%" stop-color="#80B4FF" />
      <stop offset="100%" stop-color="#A6CEFF" />
    </linearGradient>
    <filter id="batchShadow" x="-20%" y="-20%" width="140%" height="140%">
      <feGaussianBlur in="SourceAlpha" stdDeviation="0.5" />
      <feOffset dx="0.3" dy="0.5" result="offsetblur" />
      <feComponentTransfer>
        <feFuncA type="linear" slope="0.3" />
      </feComponentTransfer>
      <feMerge>
        <feMergeNode />
        <feMergeNode in="SourceGraphic" />
      </feMerge>
    </filter>
  </defs>
  
  <!-- Stacked files -->
  <path d="M4,5 L16,5 L16,19 C16,19.5 15.5,20 15,20 L5,20 C4.5,20 4,19.5 4,19 L4,5 Z" 
        fill="url(#fileGradient1)" filter="url(#batchShadow)" />
  <path d="M6,3 L18,3 L18,17 C18,17.5 17.5,18 17,18 L7,18 C6.5,18 6,17.5 6,17 L6,3 Z" 
        fill="url(#fileGradient2)" filter="url(#batchShadow)" />
  <path d="M8,1 L20,1 L20,15 C20,15.5 19.5,16 19,16 L9,16 C8.5,16 8,15.5 8,15 L8,1 Z" 
        fill="url(#fileGradient3)" filter="url(#batchShadow)" />
        
  <!-- Lines representing text -->
  <path d="M10,5 L18,5 M10,7 L18,7 M10,9 L16,9 M10,11 L14,11" 
        stroke="white" stroke-width="0.7" stroke-linecap="round" />
        
  <!-- Processing circular arrows -->
  <g transform="translate(15, 12) scale(0.8)">
    <circle cx="0" cy="0" r="3.5" fill="#FFFFFF" fill-opacity="0.95" />
    <path d="M0,-2.5 A2.5,2.5 0 0,1 2.5,0 L1.5,0 L2.5,1.5 L3.5,0 L2.5,0 A2.5,2.5 0 1,0 0,-2.5 Z" 
          fill="#4285F4" />
  </g>
</svg> 